<svg xmlns="http://www.w3.org/2000/svg" viewBox="0 0 1208 592.12"><rect x="56.39" y="110.29" width="47.28" height="14.24" rx="4.23" style="fill:#6c63ff;isolation:isolate;opacity:0.10000000149011612"/><rect x="105.94" y="124.53" width="47.28" height="14.24" rx="4.23" style="fill:#6c63ff;isolation:isolate;opacity:0.10000000149011612"/><rect x="155.5" y="138.77" width="47.28" height="14.24" rx="4.23" style="fill:#6c63ff;isolation:isolate;opacity:0.10000000149011612"/><rect x="56.39" y="88.65" width="47.28" height="14.24" rx="4.23" style="fill:#6c63ff;isolation:isolate;opacity:0.10000000149011612"/><rect x="105.94" y="103.46" width="47.28" height="14.24" rx="4.23" style="fill:#6c63ff;isolation:isolate;opacity:0.10000000149011612"/><rect x="155.5" y="117.7" width="47.28" height="14.24" rx="4.23" style="fill:#6c63ff;isolation:isolate;opacity:0.10000000149011612"/><rect x="210.75" y="110.29" width="47.28" height="14.24" rx="4.23" style="fill:#6c63ff;isolation:isolate;opacity:0.10000000149011612"/><rect x="260.3" y="124.53" width="47.28" height="14.24" rx="4.23" style="fill:#6c63ff;isolation:isolate;opacity:0.10000000149011612"/><rect x="309.85" y="138.77" width="47.28" height="14.24" rx="4.23" style="fill:#6c63ff;isolation:isolate;opacity:0.10000000149011612"/><rect x="210.75" y="88.65" width="47.28" height="14.24" rx="4.23" style="fill:#6c63ff;isolation:isolate;opacity:0.10000000149011612"/><rect x="260.3" y="103.46" width="47.28" height="14.24" rx="4.23" style="fill:#6c63ff;isolation:isolate;opacity:0.10000000149011612"/><rect x="309.85" y="117.7" width="47.28" height="14.24" rx="4.23" style="fill:#6c63ff;isolation:isolate;opacity:0.10000000149011612"/><rect x="56.39" y="60.17" width="47.28" height="14.24" rx="4.23" style="fill:#6c63ff;isolation:isolate;opacity:0.10000000149011612"/><rect x="105.94" y="74.41" width="47.28" height="14.24" rx="4.23" style="fill:#6c63ff;isolation:isolate;opacity:0.10000000149011612"/><rect x="155.5" y="88.65" width="47.28" height="14.24" rx="4.23" style="fill:#6c63ff;isolation:isolate;opacity:0.10000000149011612"/><rect x="56.39" y="38.52" width="47.28" height="14.24" rx="4.23" style="fill:#6c63ff;isolation:isolate;opacity:0.10000000149011612"/><rect x="105.94" y="52.76" width="47.28" height="14.24" rx="4.23" style="fill:#6c63ff;isolation:isolate;opacity:0.10000000149011612"/><rect x="155.5" y="67.57" width="47.28" height="14.24" rx="4.23" style="fill:#6c63ff;isolation:isolate;opacity:0.10000000149011612"/><rect x="210.75" y="60.17" width="47.28" height="14.24" rx="4.23" style="fill:#6c63ff;isolation:isolate;opacity:0.10000000149011612"/><rect x="260.3" y="74.41" width="47.28" height="14.24" rx="4.23" style="fill:#6c63ff;isolation:isolate;opacity:0.10000000149011612"/><rect x="309.85" y="88.65" width="47.28" height="14.24" rx="4.23" style="fill:#6c63ff;isolation:isolate;opacity:0.10000000149011612"/><rect x="210.75" y="38.52" width="47.28" height="14.24" rx="4.23" style="fill:#6c63ff;isolation:isolate;opacity:0.10000000149011612"/><rect x="260.3" y="52.76" width="47.28" height="14.24" rx="4.23" style="fill:#6c63ff;isolation:isolate;opacity:0.10000000149011612"/><rect x="309.85" y="67.57" width="47.28" height="14.24" rx="4.23" style="fill:#6c63ff;isolation:isolate;opacity:0.10000000149011612"/><ellipse cx="198.5" cy="239.87" rx="198.5" ry="36.17" style="fill:#6c63ff;isolation:isolate;opacity:0.10000000149011612"/><path d="M156.09,204.64,139.4,307l75.47-8-3.26-8.71-59,4.9,13.79-90.71Z" transform="translate(-69 -88.36)" style="fill:#3f3d56"/><path d="M136.49,88.73l101.61-.37L267.49,310.8l-102,13.79Z" transform="translate(-69 -88.36)" style="fill:#3f3d56"/><path d="M147.56,97.27h82L258.23,304.1l-84.54,11.62Z" transform="translate(-69 -88.36)" style="fill:#fff"/><path d="M224.9,294.58a20.74,20.74,0,0,0,1.57,2.94c2,2.62,5.68,3,8.47,4.74a.73.73,0,0,1,.33.32c.13.3-.15.61-.43.8-2.11,1.49-4.89,1.52-7.47,1.5a10.25,10.25,0,0,1-2.59-.24c-1.37-.37-2.54-1.32-3.89-1.71a9.68,9.68,0,0,0-2.14-.3l-2.83-.19a6.65,6.65,0,0,1-2.21-.41,2.25,2.25,0,0,1-1.4-1.66,4.87,4.87,0,0,1,.33-1.77c.37-1.39.26-3.08,1.34-4a4.05,4.05,0,0,1,1.51-.72,48.12,48.12,0,0,1,6-1.61C223.19,291.92,224.16,293.15,224.9,294.58Z" transform="translate(-69 -88.36)" style="fill:#3f3d56"/><path d="M192.85,302.43a2.64,2.64,0,0,1-.47,2.19,2.52,2.52,0,0,1-1.21.55c-2.68.63-5.67.67-8-.79a2.18,2.18,0,0,1-.63-.54,2.11,2.11,0,0,1-.32-1,8.7,8.7,0,0,1,.52-3,53.2,53.2,0,0,0,1.54-7.17c0-.2,6.85,1.09,7.3,1.77s.58,2.84.73,3.83C192.53,299.63,192.71,301,192.85,302.43Z" transform="translate(-69 -88.36)" style="fill:#3f3d56"/><path d="M218.23,208,220,224.87a59,59,0,0,1,.49,10.37c-.29,4-1.41,8-.93,11.94.18,1.54.6,3,.66,4.6a24.34,24.34,0,0,1-.15,3.08c-.82,10.24,1.77,20.39,3.22,30.56a13.08,13.08,0,0,1,.16,3.8c-.19,1.29-.57,3,.58,3.59l-10.77,3.9c-1.38-1.72-.47-4.4-.73-6.59-.24-2-1.32-3.73-1.9-5.62a27,27,0,0,1-.8-5.28c-.94-9.64-3.82-19-4.5-28.69a12.9,12.9,0,0,0-.36-2.77,25.55,25.55,0,0,0-1.62-3.38,24.05,24.05,0,0,1-1.6-5.39l-2.31-10.79c-2.33,3.47-2.23,8-2.69,12.14-.65,5.8-2.09,11.51-3.27,17.24a34.27,34.27,0,0,0-.61,3.74c-.31,3.37.3,6.76,0,10.12-.37,3.9-2,7.7-1.61,11.59a40.76,40.76,0,0,0,1.61,6.28,10,10,0,0,1,0,6.38,19.61,19.61,0,0,0-9.33-1c-3.46-3.54-4.07-8.47-4.31-13.43s.34-9.91-.28-14.82c-.18-1.45-.47-2.86-.52-4.31-.15-4.64,2.08-9,3.19-13.5a28.46,28.46,0,0,0,.28-12.39c-.54-2.71-1.48-5.34-1.81-8.09-.46-3.85.31-7.73,1.09-11.53.52-2.56,1-5.13,1.62-7.68a20.16,20.16,0,0,1,3.07-7.78c2.7-3.59,7.49-5.18,12-4.83s8.67,2.38,12.37,4.92A46.83,46.83,0,0,1,218.23,208Z" transform="translate(-69 -88.36)" style="fill:#192534"/><path d="M206.19,143.4a3,3,0,0,0-.42,1.07,3.61,3.61,0,0,0,.72,2.07,11.24,11.24,0,0,1,1.07,2.65,4.43,4.43,0,0,1,.15,1.77,4.14,4.14,0,0,1-.47,1.27,6.5,6.5,0,0,1-3.15,3.16,5.59,5.59,0,0,1-3.41.14,10.59,10.59,0,0,1-3.11-1.48,9.7,9.7,0,0,1-2.14-1.85,13.12,13.12,0,0,1-1.47-2.54,10.16,10.16,0,0,1-1.38-5,1.45,1.45,0,0,1,.09-.46,2.37,2.37,0,0,1,.48-.73,9.44,9.44,0,0,0,2.22-6.58l5.29,1.2c1.16.26,2.33.53,3.48.86.94.27,2.39.65,3,1.49S206.6,142.63,206.19,143.4Z" transform="translate(-69 -88.36)" style="fill:#fbbebe"/><circle cx="134.36" cy="44.53" r="9.61" style="fill:#fbbebe"/><path d="M201.81,152.28a5.54,5.54,0,0,1,2.09-2,3.76,3.76,0,0,0,1.77-2.24,1.59,1.59,0,0,1,.16-.64c.3-.46,1-.23,1.48.11a11.6,11.6,0,0,1,2.5,3.16,27.15,27.15,0,0,1,2.34,4.43,26.67,26.67,0,0,1,1.25,8.49,27.88,27.88,0,0,1-.43,7.8,22.55,22.55,0,0,0-1.13,4.81c-.12,6-2.21,11.74-2.35,17.73a47.22,47.22,0,0,0,.26,5.19l.34,3.9c-5.27-.31-10.54-.77-15.78-1.39a30.53,30.53,0,0,0-1.13-5.27,113.73,113.73,0,0,1-3.67-21.68c-.28-3.88-.57-7.76-1-11.64-.39-3.52-1.15-7.06-.69-10.58a14.47,14.47,0,0,1,1.48-4.58,2.39,2.39,0,0,1,2-1.65,15.1,15.1,0,0,1,2.5-.3,1.57,1.57,0,0,1,.61.06,1.89,1.89,0,0,1,.83.8A15.09,15.09,0,0,0,201.81,152.28Z" transform="translate(-69 -88.36)" style="fill:#f2f2f2"/><path d="M197.35,151.51c.68,1,2.11,1.19,2.73,2.18a5.89,5.89,0,0,1,.48,1.29c.38,1.22,1.15,2.27,1.62,3.46a15,15,0,0,1,.7,5.42,18.21,18.21,0,0,1-.34,4.36c-.22.89-.57,1.75-.83,2.63a12.82,12.82,0,0,0-.49,4.65,1.89,1.89,0,0,0,.26,1,2.12,2.12,0,0,0,.93.63,6.85,6.85,0,0,0,3.34.84,1.27,1.27,0,0,0,.66-.22,1.5,1.5,0,0,0,.33-.43l.73-1.23a5.46,5.46,0,0,0,1.08-3.66,7.09,7.09,0,0,0-.82-1.87,22.42,22.42,0,0,1-1.18-2.93A40.59,40.59,0,0,1,204,157.37a8.88,8.88,0,0,1,.43-4,11.35,11.35,0,0,1,1.28-2.21,1,1,0,0,0-1-.35,6.57,6.57,0,0,0-1.06.44,4.92,4.92,0,0,1-3.32,0c-.43-.12-1.09-.54-1.53-.51C198.59,150.78,197.38,151.55,197.35,151.51Z" transform="translate(-69 -88.36)" style="fill:#6c63ff"/><path d="M205.85,151.47c-.22-.18-.56-.33-.75-.13a1.11,1.11,0,0,0-.14.29,1.93,1.93,0,0,1-1.25,1c-.5.19-1,.3-1.35-.07a.81.81,0,0,1,0-1,2.72,2.72,0,0,1,.8-.67,7.81,7.81,0,0,0,3.16-5,2.37,2.37,0,0,1,.87,1.5c.12.58.13,1.17.25,1.75a25.1,25.1,0,0,1,.67,2.44c0,.44,0,.89,0,1.34a7.2,7.2,0,0,0,.15,1.3A24.53,24.53,0,0,0,205.85,151.47Z" transform="translate(-69 -88.36)" style="fill:#f2f2f2"/><path d="M198.5,149c-.36-.35-.73-.67-1.09-1a14.16,14.16,0,0,1-3.51-5.57,2.12,2.12,0,0,0-1,1.45,2.19,2.19,0,0,0,.47,1.18,18.26,18.26,0,0,1,2.66,7.12,2.16,2.16,0,0,1,1.84-1c.57,0,3.14,1.53,3.33,1.14C201.49,151.72,198.94,149.42,198.5,149Z" transform="translate(-69 -88.36)" style="fill:#f2f2f2"/><path d="M206.61,146.12a30.18,30.18,0,0,0,12.18,7.37,2.73,2.73,0,0,1,1.23.63,2.48,2.48,0,0,1,.51,1.13,62.91,62.91,0,0,1,1.48,10.6,4.33,4.33,0,0,1-1.59,4.2c-2.08,2.24-4.46,4.57-4.81,7.6a12.53,12.53,0,0,1-.21,1.74,20.39,20.39,0,0,1-.83,1.93c-1.21,3.23,1.53,7.15-.14,10.16a18.73,18.73,0,0,1,1.84,5.54,7.1,7.1,0,0,0,.49,2.13,11,11,0,0,0,2.33,2.54c2.46,2.52,2.76,6.37,2.9,9.89.09,2,.07,4.26-1.45,5.56a6.43,6.43,0,0,1-3.21,1.19,6.9,6.9,0,0,1-4.52-.31,7.35,7.35,0,0,1-2.25-2.39c-1.19-1.73-2.38-3.46-3.51-5.23-1.79-2.8-3.47-6-3-9.28a21.45,21.45,0,0,1-2.5,9.67,13.27,13.27,0,0,1-7.51,6.33,9.66,9.66,0,0,1-9.38-2.07,12.46,12.46,0,0,1-2-2.69,26.21,26.21,0,0,1-3-7.52,2.92,2.92,0,0,1,.07-2.06c.17-.3.42-.52.59-.81.57-1,0-2.21-.53-3.2-.85.08-1.46-.91-1.38-1.77a7.43,7.43,0,0,1,.94-2.35c1.06-2.28.82-4.94.32-7.39s-1.27-4.9-1.21-7.41-1.85-5-3.31-7.25c-.81-1.25-1.76-2.41-2.46-3.72a12,12,0,0,1-1-9,23.14,23.14,0,0,1,2-4.43l1.2-2.25a3.71,3.71,0,0,1,2.54-2.18l8.29-3.26a12.69,12.69,0,0,0,3-1.5c1-.76,1.76-1.81,2.73-2.62a1.55,1.55,0,0,1,1.09-.48c.77.07,1.05,1.05,1.13,1.81.18,1.72,1.45,3.17,1.88,4.83,2.34,9.2,7.29,17.69,8.64,27.08a99.34,99.34,0,0,1,5-10.78,9.09,9.09,0,0,0,.78-1.56,6.65,6.65,0,0,0,.25-2.43,31.64,31.64,0,0,0-1.34-7C208.17,152.06,207.44,149.19,206.61,146.12Z" transform="translate(-69 -88.36)" style="fill:#3f3d56"/><path d="M222.39,174.22c.16,1.55.32,3.1.61,4.63.33,1.76.84,3.49,1.34,5.22a13.34,13.34,0,0,0,1.06,2.8,3.66,3.66,0,0,1,.38.83,4.67,4.67,0,0,1-.4,2.18c-.52,2.18,1.05,4.6.06,6.61a11.92,11.92,0,0,0-1,1.76,5.1,5.1,0,0,0,.12,2.33c.31,2.18-.44,4.39-1.17,6.49l-1.25,3.53a33.25,33.25,0,0,0-3.86-6.08c-.57-.65-1.18-1.26-1.7-2a13.71,13.71,0,0,1-1.81-3.53,30.73,30.73,0,0,1-1.88-9.33,6.45,6.45,0,0,1,.31-2.69,15.7,15.7,0,0,1,.8-1.45,11.63,11.63,0,0,0,1.16-5.83,48.21,48.21,0,0,1,0-6A13.7,13.7,0,0,1,216.6,169a6.74,6.74,0,0,1,2-2.46,3.56,3.56,0,0,1,2.18-.71c1.18.07.91,1.09,1,2.08Z" transform="translate(-69 -88.36)" style="fill:#3f3d56"/><path d="M169,169.29q-1.11,3.26-2,6.59t-1.56,6.56a14,14,0,0,0-.39,3,13.18,13.18,0,0,0,.59,3.41c2.34,8.42,6.6,16.19,11.39,23.5a21.11,21.11,0,0,1,4.83-4.41,1,1,0,0,0,.36-.36,1,1,0,0,0-.11-.85c-1.33-2.71-3.43-5.11-4.09-8.06-.27-1.22-.28-2.5-.59-3.72-.41-1.58-1.31-3-1.51-4.64-.23-1.77.36-3.69-.47-5.25,1.69-.66,2.67-2.39,3.38-4.06a22.59,22.59,0,0,0,1.63-5.34,16.47,16.47,0,0,0-5.25-14.33c-.43-.39-1.45-1.51-2.08-1.5-.84,0-1.11,1.38-1.35,2C170.83,164.27,169.88,166.76,169,169.29Z" transform="translate(-69 -88.36)" style="fill:#3f3d56"/><path d="M184.05,209.9c.11.08.23.19.2.32s-.13.16-.22.22a2.84,2.84,0,0,0-1.05,1.41,38.76,38.76,0,0,0-1.57,4.17,18.8,18.8,0,0,0-2.85-3.32,7.93,7.93,0,0,1-2.19-2.51s1.9-1.43,2.07-1.59c.53-.47,1.21-1.79,1.76-2.08s1.22.95,1.69,1.47a14.48,14.48,0,0,0,2.16,1.91Z" transform="translate(-69 -88.36)" style="fill:#fbbebe"/><path d="M213.56,131.39a1.8,1.8,0,0,0-.45-1.31,1.75,1.75,0,0,0-1.09-.3c-2.12-.07-4.3.29-6.3-.42-1.31-.47-2.43-1.37-3.72-1.93s-2.92-.71-3.95.23a5.69,5.69,0,0,0-1.27,2.87,17,17,0,0,1-3.13,6.21,3.79,3.79,0,0,1-2.14-2.11c-1.55-3.14-.79-6.89.31-10.22.36-1.12.76-2.23,1.17-3.33l.88-2.44a4.72,4.72,0,0,0,3-1.51l.39.93a4.88,4.88,0,0,0,2.72-1,1.48,1.48,0,0,0,1.72.54c.64-.19,1.18-.54,1.81-.73,1.69-.54,3.49.3,5.26.39a18.79,18.79,0,0,1,2.25.07c2.09.33,3.57,2.3,4.2,4.32.43,1.34.78,3,2.11,3.47,0,.5-.88.6-1,1.08a.84.84,0,0,0,.11.47l1.21,2.6a3,3,0,0,1-1.75-.08C215.43,130.52,213.61,132.37,213.56,131.39Z" transform="translate(-69 -88.36)" style="fill:#192534"/><path d="M275.16,137.07a48.71,48.71,0,0,1,1.45,6.07c.26,1.54.41,3.25-.47,4.53,3.36-5,6.87-10.26,12-13.52a10.91,10.91,0,0,1-2.85-8.43c0-.31-4.19,1.28-4.52,1.47-1.48.82-2.83,1.84-4.28,2.72-.75.46-3.86,1.53-3.89,2.18,0,.42,1.24,1.7,1.47,2.13a16.49,16.49,0,0,1,1.11,2.85Z" transform="translate(-69 -88.36)" style="fill:#fbbebe"/><path d="M290.77,327.62a5.59,5.59,0,0,0-5.74-.43c-1.65.84-2.75,2.45-4.25,3.54-2.57,1.87-6,2-9,3a3,3,0,0,0-2,1.45,2.61,2.61,0,0,0,.14,2,5.29,5.29,0,0,0,2.49,2.56,10.54,10.54,0,0,0,4.4.69l13,.15a106.56,106.56,0,0,1,12,.6,4.55,4.55,0,0,0,2.74-.21c1.33-.73,1.48-2.57,1.38-4.08a37.76,37.76,0,0,0-2.54-11.18c-.16-.39-.37-.84-.8-.91a1.29,1.29,0,0,0-.87.27c-3.66,2.18-8.3,3.41-12.2,1.67" transform="translate(-69 -88.36)" style="fill:#fff"/><path d="M297.18,244.84c-1.45,8.42-.5,17.09,1.13,25.48a44.51,44.51,0,0,0,1.18,4.95c.59,1.85,1.38,3.63,1.92,5.49,1.4,4.72,1.2,9.76,1,14.68l-.94,22.41a16.19,16.19,0,0,0,.41,5.6c.23.72.51,1.63-.07,2.12a1.61,1.61,0,0,1-.76.29,11.83,11.83,0,0,1-7.62-1.14l-.26-22.64a145.45,145.45,0,0,0-1.24-20.87c-.85-5.48-2.33-10.89-2.43-16.43-.1-5.81,1.32-11.54,2.77-17.17.31-1.2,1.45-2.08,2.39-2.9a3.08,3.08,0,0,1,1.16-.71C296.24,243.89,296.91,244.47,297.18,244.84Z" transform="translate(-69 -88.36)" style="fill:#3f3d56"/><path d="M297.18,244.84c-1.45,8.42-.5,17.09,1.13,25.48a44.51,44.51,0,0,0,1.18,4.95c.59,1.85,1.38,3.63,1.92,5.49,1.4,4.72,1.2,9.76,1,14.68l-.94,22.41a16.19,16.19,0,0,0,.41,5.6c.23.72.51,1.63-.07,2.12a1.61,1.61,0,0,1-.76.29,11.83,11.83,0,0,1-7.62-1.14l-.26-22.64a145.45,145.45,0,0,0-1.24-20.87c-.85-5.48-2.33-10.89-2.43-16.43-.1-5.81,1.32-11.54,2.77-17.17.31-1.2,1.45-2.08,2.39-2.9a3.08,3.08,0,0,1,1.16-.71C296.24,243.89,296.91,244.47,297.18,244.84Z" transform="translate(-69 -88.36)" style="isolation:isolate;opacity:0.10000000149011612"/><path d="M270,218.49c-.54,2.21.6,4.5.47,6.77-.07,1.38-.61,2.75-.36,4.1s1.22,2.36,1.73,3.6a9.6,9.6,0,0,1,.59,3.22c.15,2.72,0,5.45-.07,8.15a80.06,80.06,0,0,0,.3,13.59,42.74,42.74,0,0,0,3.14,11.31,19.32,19.32,0,0,1,1.18,3,22.49,22.49,0,0,1,.4,3,29.7,29.7,0,0,0,2.56,9.33c.92,2,2.54,3.63,3,5.78s.16,4.22.51,6.3c.26,1.54.89,3,1.24,4.52a54.87,54.87,0,0,1,.67,6c.65,5.81,3.29,11.62,1.71,17.25a7.77,7.77,0,0,0-.58,3.43,4.25,4.25,0,0,1,.26,1.69,7.94,7.94,0,0,1-.66,1.3,2.4,2.4,0,0,0,.67,2.52,7.21,7.21,0,0,0,2.36,1.39c2.67,1.14,5.44,2.31,8.34,2.28a2.25,2.25,0,0,0,1-.19,2.52,2.52,0,0,0,1-1.41l1.49-3.68a1.56,1.56,0,0,0,.11-1.38,2.49,2.49,0,0,0-.63-.58c-1.2-1-.92-2.9-.6-4.42a65.81,65.81,0,0,0,1.35-11.87c.15-7.95-1.16-15.86-2.46-23.71a49.69,49.69,0,0,0-1.82-8.08c-.9-2.61-2.23-5.12-2-7.84.23-2.93-.53-6,0-8.9s1.36-5.72,1.91-8.61A88.37,88.37,0,0,0,298,245a11,11,0,0,1,.94-4.54c.42-.8,1-1.49,1.51-2.27,1.23-2,1.43-4.54,2.6-6.61a23.37,23.37,0,0,0,1.73-2.88,8.24,8.24,0,0,0,.44-2.56,30.55,30.55,0,0,0-.37-6.55A42.64,42.64,0,0,0,284.89,215a23.67,23.67,0,0,0-7.83,1.23C274.69,217.06,272.53,218.3,270,218.49Z" transform="translate(-69 -88.36)" style="fill:#3f3d56"/><path d="M284.91,333.58c-1.07,1.33-1,3.23-1.68,4.79-.83,1.9-2.67,3.11-4.42,4.22l-10.89,6.89a3.09,3.09,0,0,0-1.45,1.49,2.4,2.4,0,0,0,.06,1.3,5.66,5.66,0,0,0,3.8,3.86,11.29,11.29,0,0,0,2.95.3l4.89.07a29,29,0,0,0,4.47-.18c1.36-.19,2.68-.58,4-.83,2.45-.45,5-.41,7.44-.84a38.25,38.25,0,0,0,4.45-1.15,17.6,17.6,0,0,0,5.12-2.14,2.63,2.63,0,0,0,1-1.06,3.15,3.15,0,0,0,0-1.92l-2.33-10.27a6.28,6.28,0,0,0-.92-2.4,2.08,2.08,0,0,0-2.26-.85,5,5,0,0,0-.94.56,5.74,5.74,0,0,1-4.15.67,6.48,6.48,0,0,1-2.86-1c-.55-.46-.72-1.17-1.2-1.69a3.41,3.41,0,0,0-4.82-.07l-.24.27Z" transform="translate(-69 -88.36)" style="fill:#fff"/><circle cx="208.85" cy="34.18" r="13.11" style="fill:#fbbebe"/><path d="M267.73,123.31c1.26-.7,1.26-2.73,2.54-3.4s2.75.49,3.57,1.68a15.35,15.35,0,0,1,2.45,5.76A2.94,2.94,0,0,0,277,129a2.66,2.66,0,0,0,1.59.52q2.47.24,5,.45a10.9,10.9,0,0,0,5.48-.53,4.06,4.06,0,0,0,1.65-1.37,6,6,0,0,0,.7-1.84,43.23,43.23,0,0,0,1.81-10,8.07,8.07,0,0,0-.77-4.1,8.47,8.47,0,0,1-1.14-2.16c-.16-.79.36-1.81,1.19-1.72a4.76,4.76,0,0,1-2.17-.42,1.67,1.67,0,0,1-.92-1.85c-1.84.24-3.18-1.59-4.62-2.76a1.22,1.22,0,0,0-.88-.37,3.7,3.7,0,0,0-.72.28c-.73.26-1.49-.23-2.23-.44-2-.56-4.53.79-6-.66.14.93-1,1.55-1.93,1.53a8,8,0,0,0-2.79,0,1.83,1.83,0,0,1-1,2.6l.44,1a2.45,2.45,0,0,0-1.9,1.78,23.68,23.68,0,0,0-.25,6.57C267.49,116.23,268.33,123,267.73,123.31Z" transform="translate(-69 -88.36)" style="fill:#192534"/><path d="M278.92,139.44c-6.58,7.41-8.26,17.84-9.67,27.65l-2.06,14.49c-.54,3.76-1.09,7.52-1.56,11.29a29.86,29.86,0,0,0-.28,7.78,43.65,43.65,0,0,0,1.53,5.95,56.5,56.5,0,0,1,2.18,15.78c.43-1.29,1.95-1.82,3.29-2.11a53.28,53.28,0,0,1,33.33,3.56c1.84-5.14,1.49-10.75,2-16.18.73-7.74,3.23-15.24,4-23,.27-2.87.3-5.77.33-8.66a28.65,28.65,0,0,0-.4-6.34,26.22,26.22,0,0,0-2.61-6.54,171.12,171.12,0,0,0-9.91-16.84q-2.73-4.1-5.71-8c-1-1.33-2-2.65-3.07-3.94s-1.45-2.35-3.06-1.6A28.43,28.43,0,0,0,278.92,139.44Z" transform="translate(-69 -88.36)" style="fill:#6c63ff"/><path d="M282.7,201.09a35.25,35.25,0,0,1-4.82-.16,10.64,10.64,0,0,0-3.56,0,3.79,3.79,0,0,0-1.38.68,1.05,1.05,0,0,0,.59,1.82l1.24.11a3.51,3.51,0,0,1,2.23.72,1.42,1.42,0,0,1,.45.88c.07.84-.66,1.3-1.32,1.65a10.51,10.51,0,0,0-2.56,1.71,3.5,3.5,0,0,0-1.06,2.18.41.41,0,0,0,.4.43.38.38,0,0,0,.21,0c1.45-.73,2.4-2.88,4-2.52a6.48,6.48,0,0,0-3.5,2.69,1.63,1.63,0,0,0,2.18,2.3,7.38,7.38,0,0,0,.68-.46,16.32,16.32,0,0,0,2.88-3c-1.16,2.45-2.34,5.32-1,7.75a.74.74,0,0,0,.72.43c.42,0,.55-.44.62-.78a10.8,10.8,0,0,1,.82-3.31c1.28-2.31,4.43-2.54,6.82-3.67a11,11,0,0,0,5.65-7.28,5.73,5.73,0,0,0,.14-2.76c-.54-2.07-3.08-2.54-4.72-1.54C286.39,200.21,285.23,201,282.7,201.09Z" transform="translate(-69 -88.36)" style="fill:#fbbebe"/><path d="M280.15,160.47c2.54,3.93,7,6.13,10.73,8.89a8.94,8.94,0,0,1,2.37,2.26,7.68,7.68,0,0,1,.89,5.08,32,32,0,0,1-1.71,6.67l-1.59,4.74c-1,3-2,6.07-3.95,8.59a3.67,3.67,0,0,0-1,2.14,2.7,2.7,0,0,0,.47,1.3,8.77,8.77,0,0,0,5.55,4,4.31,4.31,0,0,0,2.08,0,5.67,5.67,0,0,0,2.4-1.84c3.27-3.61,6.53-7.26,8.89-11.49a60.72,60.72,0,0,0,5-13.25,27.93,27.93,0,0,0,1.08-5.12,18.81,18.81,0,0,0-2-9.49A46.5,46.5,0,0,0,304,154.7a56.33,56.33,0,0,0-6.22-7.14c-3.95-3.69-8.78-5.86-14.06-3.77-3.73,1.48-5.13,4.57-5.46,8.53A12.92,12.92,0,0,0,280.15,160.47Z" transform="translate(-69 -88.36)" style="isolation:isolate;opacity:0.10000000149011612"/><path d="M281.47,159.48c2.54,3.92,6.95,6.13,10.73,8.88a9.1,9.1,0,0,1,2.36,2.27,7.7,7.7,0,0,1,.89,5.08,32,32,0,0,1-1.71,6.68l-1.59,4.72a29.37,29.37,0,0,1-3.95,8.6,3.61,3.61,0,0,0-1,2.13,2.63,2.63,0,0,0,.47,1.29,8.72,8.72,0,0,0,5.54,4,4.35,4.35,0,0,0,2.09,0,5.65,5.65,0,0,0,2.4-1.84c3.26-3.61,6.53-7.26,8.89-11.48a60.27,60.27,0,0,0,4.95-13.26,27.14,27.14,0,0,0,1.09-5.12,18.81,18.81,0,0,0-2-9.49,46.65,46.65,0,0,0-5.31-8.21,56.94,56.94,0,0,0-6.24-7.1c-3.95-3.69-8.77-5.86-14.06-3.77-3.73,1.48-5.13,4.57-5.46,8.53a12.93,12.93,0,0,0,1.93,8.11Z" transform="translate(-69 -88.36)" style="fill:#6c63ff"/><path d="M361.71,289.37a14,14,0,0,1-.29,2.81c0,.18-.08.36-.12.51-1,4.14-3.94,7.16-7.4,7.35h-.37c-3.66,0-6.77-3.16-7.79-7.52a3.21,3.21,0,0,1-.08-.36,13.37,13.37,0,0,1-.29-2.82c0-5.9,3.65-10.69,8.16-10.69S361.71,283.47,361.71,289.37Z" transform="translate(-69 -88.36)" style="fill:#3f3d56"/><path d="M361.71,289.63a14.06,14.06,0,0,1-.29,2.82c0,.17-.08.36-.12.19h-.36a5.25,5.25,0,0,1-2.67,0,16.37,16.37,0,0,1-2.38.54,6.17,6.17,0,0,1-1.87.07h-.63a8,8,0,0,1-2.24,0,16.16,16.16,0,0,1-3.5-.87,16.17,16.17,0,0,1-1.9.51c0-.12-.06-.24-.08-.37a14,14,0,0,1-.29-2.81c0-5.91,3.65-10.69,8.17-10.69S361.71,283.74,361.71,289.63Z" transform="translate(-69 -88.36)" style="isolation:isolate;opacity:0.10000000149011612"/><path d="M379.12,269.73a16.47,16.47,0,0,0-1.77-7.48l-9.61,3,8.43-5a16.59,16.59,0,0,0-12.46-7.11,17.9,17.9,0,0,0-1.3-1.71l-13.79,4.29,11.31-6.65A16.57,16.57,0,0,0,333.81,258l11.81,13.6-12.82-9.27a16.6,16.6,0,0,0,14.85,29.28,16.68,16.68,0,0,0,10.63.3,16.61,16.61,0,0,0,19.79-12.65,16.38,16.38,0,0,0,.39-3.56c0-.36,0-.72,0-1.09A16.4,16.4,0,0,0,379.12,269.73Z" transform="translate(-69 -88.36)" style="fill:#6c63ff"/><path d="M378.84,272.8a44.27,44.27,0,0,0-15.36-.19c-5.77.95-11.66,3.05-17.3,1.52-3.31-.9-6.17-3-9.4-4.14a17.83,17.83,0,0,0-9.71-.58,16.6,16.6,0,0,0,20.57,22.15,16.65,16.65,0,0,0,10.62.3,16.62,16.62,0,0,0,19.8-12.65,16.38,16.38,0,0,0,.39-3.56,10,10,0,0,0,0-1.09A14.58,14.58,0,0,0,378.84,272.8Z" transform="translate(-69 -88.36)" style="isolation:isolate;opacity:0.10000000149011612"/><path d="M1179.06,679.41c-.34.36-.7.72-1.06,1.07h-41.17l-1-1.07,0,0c-4.47-5-7.28-12.16-9-19.76-.11-.46-.21-.92-.31-1.39-.46-2.14-.84-4.29-1.14-6.43-.06-.37-.11-.74-.16-1.11-.41-3.08-.69-6.1-.87-8.94,0-.36,0-.72-.07-1.08a147.63,147.63,0,0,1,0-17h.16l2.1.11c3,.18,8.51.63,15,1.69l1.08.19a114.59,114.59,0,0,1,16.33,3.95l1,.34v0l4.09,20.54,1.7-18.28c1.35.61,2.66,1.26,3.92,2l1,.59a32.52,32.52,0,0,1,7.75,6.11C1191.81,655.79,1188.93,669.09,1179.06,679.41Z" transform="translate(-69 -88.36)" style="fill:#f2f2f2"/><path d="M1161.76,653.09l.71.79c8.25,9.23,13.17,17.8,14.69,25.6l.06.33-.52.1-.51.09c-1.55-8.49-7.31-17.28-14.51-25.33-.23-.26-.46-.53-.7-.79-3.07-3.38-6.38-6.62-9.72-9.66l-.79-.71c-4.43-4-8.89-7.59-12.87-10.62l-.84-.64c-6.76-5.11-12-8.5-13.16-9.24l-.24-.16.27-.44h0l.28-.44s.29.17.77.49c1.82,1.17,6.71,4.4,12.79,9l.84.64c3.23,2.46,6.76,5.28,10.33,8.37.9.77,1.77,1.54,2.62,2.31l.79.71Q1157.48,648.38,1161.76,653.09Z" transform="translate(-69 -88.36)" style="fill:#fff"/><path d="M1141.87,624.35c-.12.29-.25.59-.38.88a28.27,28.27,0,0,1-3.93,6.2c-.23.27-.46.55-.7.82-.66.72-1.36,1.43-2.11,2.11a28.24,28.24,0,0,1-10.56,6l-.37.12c0,.36,0,.71.07,1.08l.37-.12a29.22,29.22,0,0,0,11.19-6.32,29.85,29.85,0,0,0,2.25-2.25c.24-.27.48-.54.7-.82a29.07,29.07,0,0,0,4.16-6.66c.13-.28.25-.57.38-.87Z" transform="translate(-69 -88.36)" style="fill:#fff"/><path d="M1159.07,628.57c0,.26-.12.53-.18.79a28.24,28.24,0,0,1-7.53,13.39l-.79.76-.24.23a28.46,28.46,0,0,1-25.19,6.66l-.32-.07c.06.37.11.74.16,1.11l.31.07a29.49,29.49,0,0,0,25.74-7l.33-.3.79-.76a29.33,29.33,0,0,0,7.74-13.74c.07-.27.13-.54.19-.81Z" transform="translate(-69 -88.36)" style="fill:#fff"/><path d="M1169.6,633.17v.77a28.33,28.33,0,0,1-7.74,19.15l-.78.79c-.28.28-.57.55-.86.81a28.5,28.5,0,0,1-33.79,3.25l-.26-.15c.11.48.21,1,.33,1.41l.24.14a29.56,29.56,0,0,0,34.18-3.86c.3-.26.59-.53.86-.81s.53-.52.79-.79a29.43,29.43,0,0,0,8.06-19.36c0-.24,0-.48,0-.73Z" transform="translate(-69 -88.36)" style="fill:#fff"/><path d="M1078.46,437H999.07a2.49,2.49,0,0,1-2.49-2.5V374a2.49,2.49,0,0,1,2.49-2.5h97.45A2.5,2.5,0,0,1,1099,374v42.36A20.61,20.61,0,0,1,1078.46,437Z" transform="translate(-69 -88.36)" style="fill:#fff"/><path d="M1078.21,437H998.74a2.71,2.71,0,0,1-2.72-2.71V374.22a2.71,2.71,0,0,1,2.72-2.7h97.55a2.71,2.71,0,0,1,2.72,2.7V416.3a20.78,20.78,0,0,1-20.8,20.7ZM999,372.08a1.81,1.81,0,0,0-1.81,1.81v60.18a1.81,1.81,0,0,0,1.81,1.81h79.13A19.84,19.84,0,0,0,1097.89,416V373.89a1.81,1.81,0,0,0-1.81-1.81Z" transform="translate(-69 -88.36)" style="fill:#ccc"/><path d="M1077.16,391.67h-58.87a2,2,0,1,1,0-3.92h58.87a2,2,0,1,1,0,3.92Z" transform="translate(-69 -88.36)" style="fill:#ccc"/><path d="M1077.16,405.66h-58.87a2,2,0,0,1-1.94-2.59,2,2,0,0,1,1.92-1.33h58.89a2,2,0,1,1,0,3.92Z" transform="translate(-69 -88.36)" style="fill:#ccc"/><path d="M1077.16,420.21h-58.87a2,2,0,0,1-1.94-2.59,2,2,0,0,1,1.92-1.33h58.89a2,2,0,1,1,0,3.92Z" transform="translate(-69 -88.36)" style="fill:#ccc"/><circle cx="1026.68" cy="285.81" r="12.17" style="fill:#6c63ff"/><path d="M1094,380.5a1.34,1.34,0,0,1-1.08-.54l-3.33-4.42a1.37,1.37,0,0,1,.22-1.91,1.35,1.35,0,0,1,1.9.22l0,.06,2.17,2.9,5.58-8.37a1.35,1.35,0,0,1,2.25,1.5l-6.64,10a1.37,1.37,0,0,1-1.09.61Z" transform="translate(-69 -88.36)" style="fill:#fff"/><path d="M1048.94,489.06H969.55A20.61,20.61,0,0,1,949,468.44V426.07a2.5,2.5,0,0,1,2.49-2.5h97.45a2.5,2.5,0,0,1,2.49,2.5v60.49A2.5,2.5,0,0,1,1048.94,489.06Z" transform="translate(-69 -88.36)" style="fill:#fff"/><path d="M1049.27,489.06H969.8a20.78,20.78,0,0,1-20.8-20.7V426.28a2.71,2.71,0,0,1,2.72-2.71h97.55a2.71,2.71,0,0,1,2.72,2.71v60.07A2.72,2.72,0,0,1,1049.27,489.06Zm-97.34-64.37a1.81,1.81,0,0,0-1.81,1.81v42.16a19.84,19.84,0,0,0,19.81,19.84h79.13a1.81,1.81,0,0,0,1.81-1.81V426.5a1.81,1.81,0,0,0-1.81-1.81Z" transform="translate(-69 -88.36)" style="fill:#ccc"/><path d="M1029.84,444.28H971a2.05,2.05,0,0,1-2.06-1.61,2,2,0,0,1,2-2.31h58.83a2.07,2.07,0,0,1,2.06,1.61,2,2,0,0,1-2,2.31Z" transform="translate(-69 -88.36)" style="fill:#ccc"/><path d="M1029.84,458.27H971a2.05,2.05,0,0,1-2.06-1.61,2,2,0,0,1,2-2.31h58.83a2.07,2.07,0,0,1,2.06,1.61,2,2,0,0,1-2,2.31Z" transform="translate(-69 -88.36)" style="fill:#ccc"/><path d="M1029.84,472.83H971a2.05,2.05,0,0,1-2.06-1.61,2,2,0,0,1,2-2.31h58.83a2.07,2.07,0,0,1,2.06,1.61,2,2,0,0,1-2,2.31Z" transform="translate(-69 -88.36)" style="fill:#ccc"/><circle cx="980.2" cy="338.61" r="12.17" style="fill:#6c63ff"/><path d="M1047.54,433.3a1.37,1.37,0,0,1-1.09-.54l-3.32-4.43a1.35,1.35,0,1,1,2.12-1.68l0,.06,2.17,2.9,5.58-8.37a1.35,1.35,0,0,1,2.28,1.46l0,0-6.64,10a1.37,1.37,0,0,1-1.09.61Z" transform="translate(-69 -88.36)" style="fill:#fff"/><path d="M1147.85,545H1036.72a20.54,20.54,0,0,1-20.55-20.49V462.6a3.21,3.21,0,0,1,3.21-3.21h128.47a3.21,3.21,0,0,1,3.21,3.21v79.23a3.21,3.21,0,0,1-3.21,3.2Z" transform="translate(-69 -88.36)" style="fill:#fff"/><path d="M1148.18,545.59H1037a20.79,20.79,0,0,1-20.8-20.75v-62a3.44,3.44,0,0,1,3.44-3.44h128.57a3.44,3.44,0,0,1,3.44,3.44v79.33A3.44,3.44,0,0,1,1148.18,545.59ZM1019.82,460a2.54,2.54,0,0,0-2.53,2.54V524.6a19.87,19.87,0,0,0,19.83,19.87H1148a2.53,2.53,0,0,0,2.53-2.53V462.49A2.54,2.54,0,0,0,1148,460Z" transform="translate(-69 -88.36)" style="fill:#ccc"/><path d="M1122.56,486.26h-77.48a2.75,2.75,0,0,1-2.66-1.91,2.79,2.79,0,0,1,2.55-3.69h77.48a2.76,2.76,0,0,1,2.67,1.91A2.8,2.8,0,0,1,1122.56,486.26Z" transform="translate(-69 -88.36)" style="fill:#ccc"/><path d="M1122.56,504.73h-77.48a2.75,2.75,0,0,1-2.66-1.91,2.79,2.79,0,0,1,2.55-3.69h77.48a2.76,2.76,0,0,1,2.67,1.91A2.8,2.8,0,0,1,1122.56,504.73Z" transform="translate(-69 -88.36)" style="fill:#ccc"/><path d="M1122.56,523.76h-77.48a2.75,2.75,0,0,1-2.66-1.9,2.79,2.79,0,0,1,2.55-3.7h77.48a2.8,2.8,0,0,1,.11,5.6Z" transform="translate(-69 -88.36)" style="fill:#ccc"/><circle cx="1079.33" cy="375.88" r="15.41" style="fill:#6c63ff"/><path d="M1146.23,472.26a1.69,1.69,0,0,1-1.37-.69l-4.2-5.6a1.71,1.71,0,0,1,2.74-2.06l2.75,3.67,7.06-10.59a1.71,1.71,0,1,1,2.85,1.9l-8.4,12.61a1.74,1.74,0,0,1-1.38.76Z" transform="translate(-69 -88.36)" style="fill:#fff"/><path d="M1188.24,667.91,1182,670l-11.06-23.18,9.25-3.09Z" transform="translate(-69 -88.36)" style="fill:#ffb6b6"/><path d="M1191.87,673.45l-20.21,5.4-.08-.25c-.71-2.1-.55-3,.44-5a8.29,8.29,0,0,1,4.79-4.17h0l2.76-4,7.82.49,1.77-.59Z" transform="translate(-69 -88.36)" style="fill:#2f2e41"/><path d="M1203.67,673.77H1197L1193.82,648h9.86Z" transform="translate(-69 -88.36)" style="fill:#ffb6b6"/><path d="M1205.35,678.81h-21.26v-.28c0-2.23.86-3,2.42-4.55a8.19,8.19,0,0,1,5.85-2.45h0l3.89-3,7.25,3h1.85Z" transform="translate(-69 -88.36)" style="fill:#2f2e41"/><path d="M1153.43,469.55a4.82,4.82,0,0,0,5.67,3.8,4.42,4.42,0,0,0,.81-.23l7.63,8,6-3.45-10.94-11.1a4.85,4.85,0,0,0-9.15,3Z" transform="translate(-69 -88.36)" style="fill:#ffb6b6"/><path d="M1202.81,509.6l3.44-3.56-19.89-18.42-20-17.88-5.55,7.84,21,19.58Z" transform="translate(-69 -88.36)" style="fill:#e4e4e4"/><path d="M1190.44,630.51c0-4.51.09-7.72.16-10.3.21-7.55.27-9.58-2.62-22.58l-.74-3.34-4.38,13.12a41,41,0,0,0-2.11,13l6.74,40.49H1174l-10-43.43V604.17a4.91,4.91,0,0,1,0-6.81l3.33-19.91,3.37-26.82h36.92s6.52,13.5,0,26.9v53l-3.37,37.09h-10.41Z" transform="translate(-69 -88.36)" style="fill:#2f2e41"/><path d="M1205.49,553.37l-34.57-2.88-.18,0,2.76-49.66a15.62,15.62,0,0,1,10.59-14v-3.47a3.25,3.25,0,0,1,3.24-3.25h5.05a3.25,3.25,0,0,1,2.91,1.79l2.47,4.94,9.34,7.48c4.61,3.69.9,40.69.7,42.64l2.26,11.3a4.31,4.31,0,0,1-3.37,5,4.58,4.58,0,0,1-.83.08Z" transform="translate(-69 -88.36)" style="fill:#e4e4e4"/><path d="M1168.71,566.66a4.83,4.83,0,0,0,.69-6.79,4.93,4.93,0,0,0-.6-.61l3.43-10.48-5.86-3.64L1161.74,560a4.85,4.85,0,0,0,7,6.65Z" transform="translate(-69 -88.36)" style="fill:#ffb6b6"/><path d="M1180.77,495.39l-4.76-1.58-6.87,30.67-6.33,30.5,9.52,1.4,7.38-32.43Z" transform="translate(-69 -88.36)" style="fill:#e4e4e4"/><circle cx="1116.97" cy="377.39" r="11.36" style="fill:#ffb6b6"/><path d="M1170.69,460.19a8.37,8.37,0,0,1,.91-3.08c.53,1.15,2.19,1.36,3.32.78a9.42,9.42,0,0,0,2.7-2.64,13.28,13.28,0,0,1,8.41-5.06c3.33-.39,7,1.3,8.26,4.4a2.08,2.08,0,0,1,2.62-.41,4.72,4.72,0,0,1,1.84,2.18,13.87,13.87,0,0,1,.46,11.11c-1.4,3.55-4.86,8.33-8.44,9.67-2.17.81-4.36-.23-6.66,0,.12-2.52.6-5.63.72-8.15.07-1.37.08-2.92-.86-3.93a2.73,2.73,0,0,0-3.85.1,2.88,2.88,0,0,0-.3.39,6.2,6.2,0,0,0-.78-2.22,2.13,2.13,0,0,0-2-1c-1,.16-1.56,1.15-2.45,1.57a2.66,2.66,0,0,1-2.95-.68,4,4,0,0,1-1-3Z" transform="translate(-69 -88.36)" style="fill:#2f2e41"/><path d="M1187.44,524l-13.34,26.67h10Z" transform="translate(-69 -88.36)" style="isolation:isolate;opacity:0.10000000149011612"/><path d="M1277,679.93a.54.54,0,0,1-.53.55H1021.81a.56.56,0,0,1,0-1.11h254.65a.53.53,0,0,1,.54.55h0Z" transform="translate(-69 -88.36)" style="fill:#cacaca"/></svg>